<svg width="390" height="353" viewBox="0 0 390 353" fill="none" xmlns="http://www.w3.org/2000/svg">
<rect y="31" width="390" height="577" fill="#AAB888"/>
<path d="M306 0.460768C294 -3.53923 264 19.4609 264 32.4608H306C299 32.4608 296 28.5 312 17.9603C303.2 16.7603 288.333 22.8333 285.5 25.5C285.5 15.9 301.5 4.4606 306 0.460768Z" fill="#AAB888"/>
<path d="M340 14.4107C328 10.4107 307 34.0773 298 46.4107H340C335.2 40.0111 342 34.0772 346 31.9102C337.2 30.7102 329.333 35.7435 326.5 38.4102C326.5 28.8102 335.5 18.4105 340 14.4107Z" fill="#AAB888"/>
<path d="M66.25 16.2104C72.75 13.9916 84.125 27.1196 89 33.9609H66.25C68.85 30.4111 65.1667 27.1195 63 25.9174C67.7667 25.2518 72.0278 28.0438 73.5625 29.523C73.5625 24.1979 68.6875 18.4291 66.25 16.2104Z" fill="#AAB888"/>
<path d="M96.5 14.9611C86.5 12.5611 81.3333 25.2944 80 31.9611H91C83.4 23.1612 91.5 16.9611 96.5 14.9611Z" fill="#AAB888"/>
</svg>
