<svg width="84" height="65" viewBox="0 0 84 65" fill="none" xmlns="http://www.w3.org/2000/svg">
<path d="M38.9226 1.17644C40.339 0.310531 44.0624 -0.71936 47.6254 2.08832C47.6369 2.01365 59.4133 3.12855 60.9116 2.32614C60.8234 2.38906 64.454 1.26345 64.8332 2.12398C64.8218 2.19866 70.9906 8.11078 71.275 8.30716C71.2137 8.45064 76.5245 10.9832 73.9458 18.8426C74.0596 18.9212 77.2404 23.6779 78.8166 26.0464C80.533 27.3282 83.9234 30.168 83.7542 31.2732C83.7028 31.6093 84.3581 32.2064 83.2912 34.2977C82.3521 32.2177 80.0794 28.0663 78.5022 28.1C78.5205 27.9805 75.2284 23.4718 73.58 21.2323C72.9594 24.602 71.1644 31.57 68.9494 32.4843C69.1683 32.5943 69.9276 35.0798 69.0215 35.0939C68.6346 35.157 67.9286 43.945 67.6239 48.3312C67.3995 48.5134 66.8703 48.7355 66.5487 48.1666C66.018 48.4675 64.9341 49.318 64.8446 50.3132C64.7009 50.4822 65.4599 51.1717 64.616 51.8067C64.5931 51.9561 63.8319 54.3617 63.1734 54.2991C63.1677 54.3364 59.6929 54.1866 59.5629 52.9821C59.4861 52.9703 60.963 50.254 61.4271 49.79C61.2735 49.7665 63.3203 43.5835 62.8596 43.513C63.0269 43.4469 63.0069 40.9243 62.9761 39.6712L63.4733 36.4228L61.8604 34.3798C59.4645 35.911 53.1051 38.5347 46.8342 36.7799L46.0455 41.9326C46.1065 42.7317 46.0743 44.6196 45.4567 45.7785C45.4224 46.0025 45.3156 48.2408 45.93 48.3348C45.7627 48.4009 47.1089 51.3304 47.8029 52.7868C47.688 53.024 47.3391 53.4037 46.8626 53.025C46.8569 53.0624 46.3594 54.5148 46.0024 54.5365C46.1062 54.6289 42.3283 54.662 41.8936 53.9076C41.8552 53.9017 44.0075 47.5438 42.6112 46.9097C42.5766 46.9044 41.3572 45.0406 41.3364 44.3711C41.1892 44.4409 40.9541 43.9938 41.0608 40.8638C41.0484 40.7397 40.3239 37.7194 39.9632 36.2248C38.5195 36.1567 35.0957 36.4962 32.9494 38.3993C32.8669 38.4249 31.2148 37.4077 31.1062 38.1171C30.9142 38.0878 30.4424 43.4801 29.8305 43.8832C29.2496 46.138 28.2421 51.0764 28.8599 52.7912C28.8141 53.09 28.7121 54.5265 28.1558 54.8234C28.0555 54.4514 27.7622 53.8002 27.391 54.1714C27.5309 54.2845 27.335 54.9653 27.2195 55.2915C25.4149 56.2126 21.5474 57.6867 20.5153 56.2141C20.4981 56.3261 19.2195 56.2068 21.1933 54.8658C21.0895 54.7735 26.6299 48.361 25.9497 42.7923C26.0649 42.81 24.2781 43.1861 22.4129 43.8177C21.9164 46.6332 20.148 52.6575 17.0461 54.2309C17.0845 54.2368 13.9296 58.4159 13.6236 62.7255C13.5312 62.5585 12.5935 65.0899 9.20864 64.6099C8.93985 64.5688 4.77714 63.7787 6.17637 60.2862C6.29139 60.1509 7.02306 57.0657 7.37452 55.54C7.67472 53.4078 8.19604 49.1465 7.8797 49.1592C7.81682 49.5699 5.16211 46.374 5.93083 45.4599C5.98638 45.3537 8.50081 41.7644 6.90195 41.94C6.8423 41.8162 0.684114 36.8611 0.728806 34.0019C0.809711 34.2436 -0.278557 24.4089 7.58399 20.7976C7.54969 21.0216 3.31257 28.9329 4.10841 29.8954C3.89516 29.7481 4.50268 35.535 8.69807 36.3683C8.71965 36.4327 11.6764 34.455 13.1521 33.458C16.644 26.8211 23.7911 13.4042 24.4447 12.8317C24.6367 12.8611 31.7954 1.26755 38.9226 1.17644Z" fill="#3F7788"/>
</svg>
