<svg width="278" height="32" viewBox="0 0 278 32" fill="none" xmlns="http://www.w3.org/2000/svg">
<g clip-path="url(#clip0_1719_5794)">
<rect width="390" height="844" transform="translate(-54 -115)" fill="white"/>
<path d="M243 0.460768C231 -3.53923 201 19.4609 201 32.4608H243C236 32.4608 233 28.5 249 17.9603C240.2 16.7603 225.333 22.8333 222.5 25.5C222.5 15.9 238.5 4.4606 243 0.460768Z" fill="#F1F5E8"/>
<path d="M277 14.4107C265 10.4107 244 34.0773 235 46.4107H277C272.2 40.0111 279 34.0772 283 31.9102C274.2 30.7102 266.333 35.7435 263.5 38.4102C263.5 28.8102 272.5 18.4105 277 14.4107Z" fill="#F1F5E8"/>
<path d="M3.25 16.2104C9.75 13.9916 21.125 27.1196 26 33.9609H3.25C5.85 30.4111 2.16667 27.1195 0 25.9174C4.76667 25.2518 9.02778 28.0438 10.5625 29.523C10.5625 24.1979 5.6875 18.4291 3.25 16.2104Z" fill="#F1F5E8"/>
<path d="M33.5 14.9611C23.5 12.5611 18.3333 25.2944 17 31.9611H28C20.4 23.1612 28.5 16.9611 33.5 14.9611Z" fill="#F1F5E8"/>
</g>
<defs>
<clipPath id="clip0_1719_5794">
<rect width="390" height="844" fill="white" transform="translate(-54 -115)"/>
</clipPath>
</defs>
</svg>
