<svg width="156" height="156" viewBox="0 0 156 156" fill="none" xmlns="http://www.w3.org/2000/svg">
<g filter="url(#filter0_d_2049_6088)">
<ellipse cx="78" cy="73.9289" rx="69" ry="68.9289" fill="#F1F5E8"/>
<path d="M72.9267 12.4329C69.9502 11.8923 70.7845 7.70249 71.5738 5.67517C79.0149 4.66167 99.3091 3.98627 119.941 19.5285C132.719 29.1538 149.03 48.925 146.662 76.6314C144.745 70.4368 139.83 60.4129 135.5 69.8737L122.309 56.3582C121.182 52.0783 117.236 43.7888 110.471 44.8701C102.015 46.2216 99.3091 29.3273 99.3091 28.9894C103.368 20.2043 95.2502 27.2999 95.2502 26.9621C93.8973 25.6105 92.5444 30.003 92.5444 30.3409C85.1032 33.044 88.8238 21.5559 88.8238 21.218C90.8532 12.095 73.6032 12.7708 72.9267 12.4329Z" fill="#82A920" stroke="#82A920"/>
<path d="M114.868 90.1474C120.009 89.3364 121.069 84.178 120.956 81.7002H121.971C123.098 83.8401 125.353 87.9173 125.353 87.1064C125.353 91.4989 128.397 87.4443 128.397 87.1064C130.562 87.1064 129.299 89.1337 128.397 90.1474C132.118 97.5809 144.633 91.4989 144.633 91.8368C141.927 111.569 125.015 127.315 106.75 136.438C105.51 135.424 103.03 133.329 103.03 133.059C101.136 131.707 103.819 127.765 105.397 125.963C107.021 122.72 111.035 124.612 112.839 125.963C121.633 126.301 120.956 107.717 120.956 106.704C125.692 95.5536 112.839 99.9461 112.839 99.2703C106.074 95.2157 114.868 90.4853 114.868 90.1474Z" fill="#82A920" stroke="#82A920"/>
<path d="M86.7942 114.475C85.7118 112.313 88.8236 108.618 90.5148 107.041C91.4167 106.14 93.356 104.271 93.8971 104.001C93.2207 102.649 94.5736 99.608 95.2501 99.9459C95.2501 98.9322 97.2795 101.635 97.2795 101.973C98.6324 103.325 95.2501 107.041 95.2501 107.717C95.9265 109.407 91.5295 109.069 91.8677 109.407C90.5148 111.772 93.8971 113.123 94.5736 112.786C95.5883 116.502 88.4854 117.516 89.1618 117.178C91.8677 117.178 88.0344 115.151 86.7942 114.475Z" fill="#82A920" stroke="#82A920"/>
<path d="M34.0292 20.543C39.4409 22.1198 49.7909 26.7601 47.8968 32.7069C47.8968 33.0448 45.5292 46.5603 50.9409 45.2087C51.6174 46.2224 69.5439 49.2634 63.7939 54.6695C63.4556 55.0074 66.4998 58.3863 63.7939 58.3863C63.7939 58.7242 60.7498 63.7925 63.7939 65.4819C65.4851 64.1304 68.5292 60.7515 69.5439 63.4546C68.1909 67.8471 79.6909 64.1304 77.6615 67.8471C77.324 67.5099 75.6389 66.8362 77.6494 73.5507C77.6573 73.5658 77.6615 73.5793 77.6615 73.5912C77.6575 73.5777 77.6534 73.5642 77.6494 73.5507C77.4301 73.135 74.3386 71.5164 75.9704 70.2123C75.6321 70.5502 59.735 66.4956 63.7939 71.9018C63.3429 73.5912 62.7115 77.3755 63.7939 78.9974C63.7939 79.3353 46.8821 76.6322 42.8233 95.8918C42.8233 95.5539 44.8527 105.69 37.7498 99.9464C37.4115 99.9464 29.9703 99.9464 27.2645 95.8918C26.9262 94.5402 31.3233 78.3216 16.4409 86.093C16.1027 86.4309 12.3821 88.7961 11.0292 87.4446C9.67622 86.093 6.29387 59.4 14.0733 48.9255C13.735 48.5876 24.2204 24.9355 34.0292 20.543Z" fill="#82A920"/>
<path d="M34.0292 20.543C39.4409 22.1198 49.7909 26.7601 47.8968 32.7069C47.8968 33.0448 45.5292 46.5603 50.9409 45.2087C51.6174 46.2224 69.5439 49.2634 63.7939 54.6695C63.4556 55.0074 66.4998 58.3863 63.7939 58.3863C63.7939 58.7242 60.7498 63.7925 63.7939 65.4819C65.4851 64.1304 68.5292 60.7515 69.5439 63.4546C68.1909 67.8471 79.6909 64.1304 77.6615 67.8471C77.3233 67.5093 75.6321 66.8335 77.6615 73.5912C77.6615 73.2533 74.2792 71.5639 75.9703 70.2123C75.6321 70.5502 59.735 66.4956 63.7939 71.9018C63.3429 73.5912 62.7115 77.3756 63.7939 78.9974C63.7939 79.3353 46.8821 76.6322 42.8233 95.8918C42.8233 95.5539 44.8527 105.69 37.7498 99.9464C37.4115 99.9464 29.9703 99.9464 27.2645 95.8918C26.9262 94.5402 31.3233 78.3216 16.4409 86.093C16.1027 86.4309 12.3821 88.7961 11.0292 87.4446C9.67622 86.093 6.29387 59.4 14.0733 48.9255C13.735 48.5876 24.2203 24.9355 34.0292 20.543Z" stroke="#82A920"/>
<path d="M38.088 117.178C33.2174 113.664 29.0683 117.967 27.6027 120.557C35.3821 132.045 55.338 139.141 55.6762 139.141C67.1762 146.237 90.8527 141.506 92.8821 140.83C94.9115 140.155 89.1615 139.479 89.4997 139.141C83.0733 144.547 75.9703 137.452 75.9703 136.776C76.5115 132.721 71.235 131.933 68.5291 132.045C64.8085 135.424 59.0585 130.356 59.0585 129.68C53.3085 130.018 62.1027 122.247 62.4409 121.909C61.7644 119.544 57.3674 124.612 57.0291 124.274C49.9262 126.977 49.588 117.178 49.2497 117.178C45.7321 113.935 45.0782 115.376 45.1909 116.503C44.8527 118.192 42.9585 120.692 38.088 117.178Z" fill="#82A920" stroke="#82A920"/>
</g>
<defs>
<filter id="filter0_d_2049_6088" x="0.625427" y="0.722656" width="154.768" height="154.777" filterUnits="userSpaceOnUse" color-interpolation-filters="sRGB">
<feFlood flood-opacity="0" result="BackgroundImageFix"/>
<feColorMatrix in="SourceAlpha" type="matrix" values="0 0 0 0 0 0 0 0 0 0 0 0 0 0 0 0 0 0 127 0" result="hardAlpha"/>
<feOffset dy="4"/>
<feGaussianBlur stdDeviation="4"/>
<feComposite in2="hardAlpha" operator="out"/>
<feColorMatrix type="matrix" values="0 0 0 0 0 0 0 0 0 0 0 0 0 0 0 0 0 0 0.25 0"/>
<feBlend mode="normal" in2="BackgroundImageFix" result="effect1_dropShadow_2049_6088"/>
<feBlend mode="normal" in="SourceGraphic" in2="effect1_dropShadow_2049_6088" result="shape"/>
</filter>
</defs>
</svg>
