<svg width="119" height="119" viewBox="0 0 119 119" fill="none" xmlns="http://www.w3.org/2000/svg">
<g filter="url(#filter0_d_2049_6090)">
<ellipse cx="59.5" cy="55.448" rx="50.5" ry="50.448" fill="#F1F5E8"/>
<path d="M55.7869 10.4402C53.6085 10.0445 54.2191 6.97804 54.7967 5.49427C60.2428 4.75251 75.0958 4.25819 90.1963 15.6333C99.5479 22.6779 111.485 37.1482 109.753 57.426C108.35 52.8923 104.752 45.5559 101.584 52.4801L91.9291 42.5884C91.1039 39.456 88.2159 33.389 83.2649 34.1804C77.0762 35.1696 75.0958 22.8049 75.0958 22.5576C78.0664 16.1279 72.1252 21.3211 72.1252 21.0738C71.135 20.0846 70.1448 23.2995 70.1448 23.5467C64.6987 25.5251 67.4217 17.1171 67.4217 16.8698C68.907 10.1929 56.282 10.6874 55.7869 10.4402Z" fill="#82A920" stroke="#82A920"/>
<path d="M86.4831 67.3181C90.2459 66.7246 91.0215 62.9492 90.939 61.1357H91.6816C92.5068 62.7019 94.1571 65.686 94.1571 65.0924C94.1571 68.3073 96.3851 65.3397 96.3851 65.0924C97.9694 65.0924 97.0452 66.5762 96.3851 67.3181C99.1081 72.7586 108.267 68.3073 108.267 68.5546C106.287 82.9965 93.9096 94.5204 80.5419 101.197C79.6342 100.456 77.8188 98.9223 77.8188 98.7244C76.4326 97.7353 78.3965 94.8502 79.5517 93.5313C80.7399 91.1572 83.6775 92.5421 84.9978 93.5313C91.4341 93.7786 90.939 80.1774 90.939 79.4355C94.4047 71.2748 84.9978 74.4896 84.9978 73.995C80.0468 71.0275 86.4831 67.5654 86.4831 67.3181Z" fill="#82A920" stroke="#82A920"/>
<path d="M65.9363 85.1234C65.1442 83.5407 67.4216 80.8369 68.6593 79.6829C69.3195 79.0235 70.7388 77.6551 71.1348 77.4573C70.6397 76.4681 71.6299 74.2424 72.125 74.4897C72.125 73.7478 73.6103 75.7262 73.6103 75.9735C74.6005 76.9627 72.125 79.6829 72.125 80.1775C72.6201 81.414 69.402 81.1667 69.6495 81.414C68.6593 83.145 71.1348 84.1342 71.6299 83.8869C72.3726 86.6071 67.1741 87.3491 67.6692 87.1017C69.6495 87.1018 66.844 85.618 65.9363 85.1234Z" fill="#82A920" stroke="#82A920"/>
<path d="M27.3184 16.376C31.2792 17.53 38.8542 20.9262 37.468 25.2786C37.468 25.5259 35.7351 35.4176 39.6959 34.4284C40.191 35.1703 53.3111 37.396 49.1028 41.3527C48.8552 41.6 51.0832 44.0729 49.1028 44.0729C49.1028 44.3202 46.8748 48.0296 49.1028 49.2661C50.3405 48.2769 52.5684 45.804 53.3111 47.7823C52.3209 50.9971 60.7376 48.2769 59.2523 50.9971C59.0052 50.7503 57.7719 50.2572 59.2434 55.1715C59.2492 55.1825 59.2523 55.1925 59.2523 55.2011C59.2493 55.1912 59.2463 55.1813 59.2434 55.1715C59.0829 54.8673 56.8203 53.6826 58.0145 52.7282C57.767 52.9755 46.1322 50.008 49.1028 53.9647C48.7727 55.2011 48.3106 57.9708 49.1028 59.1579C49.1028 59.4051 36.7253 57.4268 33.7547 71.5226C33.7547 71.2753 35.24 78.6941 30.0415 74.4901C29.7939 74.4901 24.3479 74.4901 22.3675 71.5226C22.1199 70.5334 25.3381 58.6633 14.4459 64.351C14.1983 64.5983 11.4753 66.3294 10.4851 65.3402C9.49492 64.351 7.01943 44.8148 12.7131 37.1487C12.4655 36.9014 20.1395 19.5908 27.3184 16.376Z" fill="#82A920" stroke="#82A920"/>
<path d="M30.289 87.1011C26.7243 84.5292 23.6877 87.6781 22.615 89.574C28.3086 97.982 42.914 103.175 43.1616 103.175C51.5782 108.368 68.9067 104.906 70.3919 104.412C71.8772 103.917 67.6689 103.423 67.9165 103.175C63.213 107.132 58.0145 101.939 58.0145 101.444C58.4106 98.4767 54.5488 97.8996 52.5684 97.9821C49.8454 100.455 45.637 96.7456 45.637 96.251C41.4287 96.4983 47.865 90.8105 48.1125 90.5633C47.6174 88.8322 44.3993 92.5416 44.1518 92.2943C38.9532 94.2727 38.7057 87.1011 38.4581 87.1011C35.8836 84.7271 35.405 85.7822 35.4875 86.6065C35.24 87.843 33.8537 89.673 30.289 87.1011Z" fill="#82A920" stroke="#82A920"/>
</g>
<defs>
<filter id="filter0_d_2049_6090" x="0.591797" y="0.663086" width="117.83" height="117.837" filterUnits="userSpaceOnUse" color-interpolation-filters="sRGB">
<feFlood flood-opacity="0" result="BackgroundImageFix"/>
<feColorMatrix in="SourceAlpha" type="matrix" values="0 0 0 0 0 0 0 0 0 0 0 0 0 0 0 0 0 0 127 0" result="hardAlpha"/>
<feOffset dy="4"/>
<feGaussianBlur stdDeviation="4"/>
<feComposite in2="hardAlpha" operator="out"/>
<feColorMatrix type="matrix" values="0 0 0 0 0 0 0 0 0 0 0 0 0 0 0 0 0 0 0.25 0"/>
<feBlend mode="normal" in2="BackgroundImageFix" result="effect1_dropShadow_2049_6090"/>
<feBlend mode="normal" in="SourceGraphic" in2="effect1_dropShadow_2049_6090" result="shape"/>
</filter>
</defs>
</svg>
