<svg width="390" height="151" viewBox="0 0 390 151" fill="none" xmlns="http://www.w3.org/2000/svg">
<path opacity="0.7" d="M0 125C3.66667 102 14.8 51.5 30 33.5C31 35.5 5.5 82 30 103.5C30 104.5 42.5 131 53.5 134.5C54.498 137.993 30.0966 49.3508 46.8999 22.1605C46.9192 22.0544 46.9524 22 47 22C46.9665 22.0533 46.9331 22.1068 46.8999 22.1605C46.1054 26.5138 68.5 117.929 68.5 115C68.5 112.321 83.2493 53.4359 76.4426 27.3271C74.4561 22.7812 73.1895 19.9737 73 19.5C74.4995 21.535 75.6261 24.1952 76.4426 27.3271C84.6785 46.1738 105.289 94.9012 112.823 131.091C110.438 114.645 103.794 43.3246 113.5 19.5C114.333 61 119 142.1 131 134.5C132 134.5 148.115 55.5 131 44.5C131 43.2456 160.021 70.3132 165.14 104.358C166.877 77.6232 172.511 31.6185 184.427 7.64612C184.457 7.54931 184.481 7.5 184.5 7.5C184.476 7.54861 184.451 7.59732 184.427 7.64612C182.889 12.6781 167.33 145.962 184.5 144C184.5 143 175.5 81 202 39C204 44.5 184 126.5 208.5 115C209.499 115 208.503 31.2398 222.938 22.039C222.96 22.0131 222.98 22 223 22C222.979 22.0129 222.959 22.0259 222.938 22.039C220.739 24.6598 207.73 158.358 231 144C232 144 221 36.5 236 22C236.828 19.9303 254.105 68.9214 256.34 104.856C257.824 83.4264 260.728 51.6399 263 44.5C262 80.8333 263.4 151.6 277 144C273.333 106.5 268.2 29.1 277 19.5C277.5 61 282.1 142.1 296.5 134.5C294.5 134.5 279 7.5 291 0C310.6 107.6 324.833 134.5 329.5 134.5L311.5 14C329.176 75.7382 336.311 107.822 338.5 122.912V7.5C350.183 81.6881 351.736 115.247 350.36 127.955C359.898 100.618 372.616 53.494 369.069 23.0943C366.329 13.5802 364.47 7.5 365 7.5C367.07 11.8832 368.378 17.1713 369.069 23.0943C373.636 38.9515 380.649 64.3477 383.118 87.0307C385.545 61.4938 388.831 28.7385 391 7.5V159.5H0V125Z" fill="#AAB888"/>
</svg>
