<svg width="84" height="84" viewBox="0 0 84 84" fill="none" xmlns="http://www.w3.org/2000/svg">
<g filter="url(#filter0_d_2049_6146)">
<ellipse cx="42" cy="37.966" rx="33" ry="32.966" fill="#F1F5E8"/>
<path d="M39.5736 8.55483C38.1501 8.29627 38.5491 6.29245 38.9265 5.32287C42.4854 4.83815 52.1912 4.51513 62.0589 11.9484C68.1699 16.5518 75.9707 26.0076 74.8383 39.2585C73.9216 36.2958 71.5707 31.5018 69.5001 36.0265L63.1912 29.5626C62.652 27.5157 60.7648 23.5511 57.5295 24.0682C53.4854 24.7146 52.1912 16.6347 52.1912 16.4731C54.1324 12.2716 50.2501 15.6651 50.2501 15.5035C49.603 14.8572 48.9559 16.9579 48.9559 17.1195C45.3971 18.4123 47.1765 12.918 47.1765 12.7564C48.1471 8.39323 39.8971 8.71643 39.5736 8.55483Z" fill="#82A920" stroke="#82A920"/>
<path d="M59.6326 45.7226C62.0914 45.3347 62.5982 42.8677 62.5443 41.6826H63.0296C63.5688 42.7061 64.6473 44.656 64.6473 44.2682C64.6473 46.369 66.1031 44.4298 66.1031 44.2682C67.1384 44.2682 66.5345 45.2378 66.1031 45.7226C67.8825 49.2777 73.8678 46.369 73.8678 46.5306C72.5737 55.9679 64.4855 63.4984 55.7502 67.8615C55.157 67.3767 53.9708 66.3748 53.9708 66.2455C53.0649 65.5991 54.3482 63.7138 55.1031 62.852C55.8796 61.3006 57.7992 62.2056 58.662 62.852C62.8679 63.0136 62.5443 54.1257 62.5443 53.6409C64.8091 48.3081 58.662 50.4089 58.662 50.0857C55.4267 48.1465 59.6326 45.8842 59.6326 45.7226Z" fill="#82A920" stroke="#82A920"/>
<path d="M46.2059 57.3577C45.6882 56.3234 47.1765 54.5566 47.9853 53.8025C48.4167 53.3716 49.3441 52.4774 49.6029 52.3481C49.2794 51.7017 49.9265 50.2473 50.25 50.4089C50.25 49.9241 51.2206 51.2169 51.2206 51.3785C51.8676 52.0249 50.25 53.8025 50.25 54.1257C50.5735 54.9337 48.4706 54.7721 48.6323 54.9337C47.9853 56.0649 49.6029 56.7113 49.9265 56.5497C50.4117 58.3272 47.0147 58.8121 47.3382 58.6504C48.6323 58.6505 46.799 57.6808 46.2059 57.3577Z" fill="#82A920" stroke="#82A920"/>
<path d="M20.9704 12.4336C23.5587 13.1877 28.5087 15.407 27.6028 18.2511C27.6028 18.4127 26.4704 24.8766 29.0587 24.2303C29.3822 24.715 37.9557 26.1694 35.2057 28.755C35.0439 28.9166 36.4998 30.5326 35.2057 30.5326C35.2057 30.6942 33.7498 33.1182 35.2057 33.9261C36.0145 33.2797 37.4704 31.6638 37.9557 32.9566C37.3086 35.0573 42.8087 33.2797 41.8381 35.0573C41.6766 34.8961 40.8707 34.5738 41.8323 37.7851C41.8361 37.7923 41.8381 37.7988 41.8381 37.8045C41.8361 37.798 41.8342 37.7916 41.8323 37.7851C41.7274 37.5863 40.2488 36.8122 41.0292 36.1885C40.8675 36.3501 33.2645 34.4109 35.2057 36.9965C34.99 37.8045 34.6881 39.6144 35.2057 40.3901C35.2057 40.5517 27.1175 39.2589 25.1763 48.47C25.1763 48.3084 26.1469 53.1563 22.7498 50.4091C22.5881 50.4091 19.0292 50.4091 17.7351 48.47C17.5734 47.8236 19.6763 40.0669 12.5587 43.7836C12.3969 43.9452 10.6175 45.0764 9.97042 44.43C9.32336 43.7836 7.70571 31.0174 11.4263 26.0078C11.2645 25.8462 16.2792 14.5344 20.9704 12.4336Z" fill="#82A920" stroke="#82A920"/>
<path d="M22.9117 58.6504C20.5823 56.9698 18.598 59.0275 17.897 60.2664C21.6176 65.7607 31.1617 69.1543 31.3234 69.1543C36.8234 72.5479 48.147 70.2855 49.1176 69.9623C50.0882 69.6391 47.3382 69.3159 47.4999 69.1543C44.4264 71.7399 41.0293 68.3463 41.0293 68.0231C41.2882 66.0839 38.7646 65.7069 37.4705 65.7607C35.6911 67.3767 32.9411 64.9527 32.9411 64.6296C30.1911 64.7911 34.397 61.0744 34.5587 60.9128C34.2352 59.7816 32.1323 62.2056 31.9705 62.044C28.5734 63.3368 28.4117 58.6504 28.2499 58.6504C26.5676 57.0991 26.2548 57.7885 26.3087 58.3272C26.147 59.1352 25.2411 60.331 22.9117 58.6504Z" fill="#82A920" stroke="#82A920"/>
</g>
<defs>
<filter id="filter0_d_2049_6146" x="0.559937" y="0.606445" width="82.889" height="82.8936" filterUnits="userSpaceOnUse" color-interpolation-filters="sRGB">
<feFlood flood-opacity="0" result="BackgroundImageFix"/>
<feColorMatrix in="SourceAlpha" type="matrix" values="0 0 0 0 0 0 0 0 0 0 0 0 0 0 0 0 0 0 127 0" result="hardAlpha"/>
<feOffset dy="4"/>
<feGaussianBlur stdDeviation="4"/>
<feComposite in2="hardAlpha" operator="out"/>
<feColorMatrix type="matrix" values="0 0 0 0 0 0 0 0 0 0 0 0 0 0 0 0 0 0 0.25 0"/>
<feBlend mode="normal" in2="BackgroundImageFix" result="effect1_dropShadow_2049_6146"/>
<feBlend mode="normal" in="SourceGraphic" in2="effect1_dropShadow_2049_6146" result="shape"/>
</filter>
</defs>
</svg>
