<svg width="390" height="253" viewBox="0 0 390 253" fill="none" xmlns="http://www.w3.org/2000/svg">
<path d="M-35 198.276C-30.9676 161.793 -18.7238 81.6897 -2.00768 53.1379C-0.907928 56.3103 -28.9514 130.069 -2.00768 164.172C-2.00768 165.759 11.7391 207.793 23.8363 213.345C24.9339 218.886 -1.90148 78.2805 16.5779 35.1512C16.5992 34.9828 16.6356 34.8966 16.688 34.8966C16.6511 34.981 16.6144 35.0659 16.5779 35.1512C15.7041 42.0563 40.3325 187.059 40.3325 182.414C40.3325 178.165 56.5529 84.7602 49.0673 43.3464C46.8826 36.1356 45.4897 31.6824 45.2813 30.931C46.9304 34.159 48.1694 38.3786 49.0673 43.3464C58.1247 73.241 80.7908 150.533 89.0759 207.937C86.4539 181.851 79.1465 68.7218 89.821 30.931C90.7374 96.7586 95.8696 225.4 109.066 213.345C110.166 213.345 127.888 88.0345 109.066 70.5862C109.066 68.5965 140.982 111.531 146.612 165.533C148.522 123.127 154.719 50.1534 167.823 12.1283C167.855 11.9748 167.882 11.8966 167.903 11.8966C167.876 11.9737 167.849 12.0509 167.823 12.1283C166.131 20.1102 149.021 231.526 167.903 228.414C167.903 226.828 158.005 128.483 187.148 61.8621C189.348 70.5862 167.353 200.655 194.297 182.414C195.395 182.414 194.3 49.5528 210.175 34.9585C210.199 34.9173 210.221 34.8966 210.243 34.8966C210.22 34.9169 210.197 34.9376 210.175 34.9585C207.757 39.1156 193.45 251.188 219.041 228.414C220.141 228.414 208.043 57.8966 224.54 34.8966C225.45 31.6136 244.45 109.323 246.908 166.323C248.541 132.331 251.734 81.9116 254.233 70.5862C253.133 128.218 254.673 240.469 269.629 228.414C265.597 168.931 259.951 46.1586 269.629 30.931C270.179 96.7586 275.238 225.4 291.074 213.345C288.875 213.345 271.829 11.8966 285.026 0C306.581 170.676 322.234 213.345 327.366 213.345L307.57 22.2069C327.009 120.136 334.856 171.027 337.263 194.964V11.8966C350.112 129.574 351.819 182.806 350.307 202.964C360.796 159.6 374.783 84.8528 370.882 36.6326C367.869 21.5411 365.823 11.8966 366.407 11.8966C368.683 18.8493 370.122 27.2374 370.882 36.6326C375.904 61.7854 383.616 102.069 386.332 138.049C389 97.542 392.615 45.5853 395 11.8966V253H-35V198.276Z" fill="#E0E6CE"/>
</svg>
