<svg width="173" height="96" viewBox="0 0 173 96" fill="none" xmlns="http://www.w3.org/2000/svg">
<path d="M25.4602 13.1193C25.1307 12.0852 24.6875 11.1591 24.1307 10.3409C23.5852 9.51136 22.9318 8.80682 22.1705 8.22727C21.4091 7.63636 20.5398 7.1875 19.5625 6.88068C18.5966 6.57386 17.5341 6.42045 16.375 6.42045C14.4091 6.42045 12.6364 6.92614 11.0568 7.9375C9.47727 8.94886 8.22727 10.4318 7.30682 12.3864C6.39773 14.3295 5.94318 16.7102 5.94318 19.5284C5.94318 22.358 6.40341 24.75 7.32386 26.7045C8.24432 28.6591 9.50568 30.142 11.108 31.1534C12.7102 32.1648 14.5341 32.6705 16.5795 32.6705C18.4773 32.6705 20.1307 32.2841 21.5398 31.5114C22.9602 30.7386 24.0568 29.6477 24.8295 28.2386C25.6136 26.8182 26.0057 25.1477 26.0057 23.2273L27.3693 23.483H17.3807V19.1364H31.1023V23.108C31.1023 26.0398 30.4773 28.5852 29.2273 30.7443C27.9886 32.892 26.2727 34.5511 24.0795 35.7216C21.8977 36.892 19.3977 37.4773 16.5795 37.4773C13.4205 37.4773 10.6477 36.75 8.26136 35.2955C5.88636 33.8409 4.03409 31.7784 2.70455 29.108C1.375 26.4261 0.710227 23.2443 0.710227 19.5625C0.710227 16.7784 1.09659 14.2784 1.86932 12.0625C2.64205 9.84659 3.72727 7.96591 5.125 6.42045C6.53409 4.86364 8.1875 3.67614 10.0852 2.85795C11.9943 2.02841 14.0795 1.61364 16.3409 1.61364C18.2273 1.61364 19.983 1.89204 21.608 2.44886C23.2443 3.00568 24.6989 3.79545 25.9716 4.81818C27.2557 5.84091 28.3182 7.05682 29.1591 8.46591C30 9.86364 30.5682 11.4148 30.8636 13.1193H25.4602ZM37.3793 37V10.8182H42.3054V14.9773H42.5781C43.0554 13.5682 43.8963 12.4602 45.1009 11.6534C46.3168 10.8352 47.6918 10.4261 49.2259 10.4261C49.544 10.4261 49.919 10.4375 50.3509 10.4602C50.794 10.483 51.1406 10.5114 51.3906 10.5455V15.4205C51.1861 15.3636 50.8224 15.3011 50.2997 15.233C49.777 15.1534 49.2543 15.1136 48.7315 15.1136C47.527 15.1136 46.4531 15.3693 45.5099 15.8807C44.5781 16.3807 43.8395 17.0795 43.294 17.9773C42.7486 18.8636 42.4759 19.875 42.4759 21.0114V37H37.3793ZM63.1861 37.5795C61.527 37.5795 60.027 37.2727 58.6861 36.6591C57.3452 36.0341 56.2827 35.1307 55.4986 33.9489C54.7259 32.767 54.3395 31.3182 54.3395 29.6023C54.3395 28.125 54.6236 26.9091 55.1918 25.9545C55.7599 25 56.527 24.2443 57.4929 23.6875C58.4588 23.1307 59.5384 22.7102 60.7315 22.4261C61.9247 22.142 63.1406 21.9261 64.3793 21.7784C65.9474 21.5966 67.2202 21.4489 68.1974 21.3352C69.1747 21.2102 69.8849 21.0114 70.3281 20.7386C70.7713 20.4659 70.9929 20.0227 70.9929 19.4091V19.2898C70.9929 17.8011 70.5724 16.6477 69.7315 15.8295C68.902 15.0114 67.6634 14.6023 66.0156 14.6023C64.2997 14.6023 62.9474 14.983 61.9588 15.7443C60.9815 16.4943 60.3054 17.3295 59.9304 18.25L55.1406 17.1591C55.7088 15.5682 56.5384 14.2841 57.6293 13.3068C58.7315 12.3182 59.9986 11.6023 61.4304 11.1591C62.8622 10.7045 64.3679 10.4773 65.9474 10.4773C66.9929 10.4773 68.1009 10.6023 69.2713 10.8523C70.4531 11.0909 71.5554 11.5341 72.5781 12.1818C73.6122 12.8295 74.4588 13.7557 75.1179 14.9602C75.777 16.1534 76.1065 17.7045 76.1065 19.6136V37H71.1293V33.4205H70.9247C70.5952 34.0795 70.1009 34.7273 69.4418 35.3636C68.7827 36 67.9361 36.5284 66.902 36.9489C65.8679 37.3693 64.6293 37.5795 63.1861 37.5795ZM64.294 33.4886C65.7031 33.4886 66.9077 33.2102 67.9077 32.6534C68.919 32.0966 69.6861 31.3693 70.2088 30.4716C70.7429 29.5625 71.0099 28.5909 71.0099 27.5568V24.1818C70.8281 24.3636 70.4759 24.5341 69.9531 24.6932C69.4418 24.8409 68.8565 24.9716 68.1974 25.0852C67.5384 25.1875 66.8963 25.2841 66.2713 25.375C65.6463 25.4545 65.1236 25.5227 64.7031 25.5795C63.7145 25.7045 62.8111 25.9148 61.9929 26.2102C61.1861 26.5057 60.5384 26.9318 60.0497 27.4886C59.5724 28.0341 59.3338 28.7614 59.3338 29.6705C59.3338 30.9318 59.7997 31.8864 60.7315 32.5341C61.6634 33.1705 62.8509 33.4886 64.294 33.4886ZM82.3494 37V33.5057L96.5312 15.4886V15.25H82.8097V10.8182H102.889V14.5341L89.2528 32.3295V32.5682H103.366V37H82.3494ZM109.379 37V10.8182H114.476V37H109.379ZM111.953 6.77841C111.067 6.77841 110.305 6.48295 109.669 5.89204C109.044 5.28977 108.732 4.57386 108.732 3.74432C108.732 2.90341 109.044 2.1875 109.669 1.59659C110.305 0.994317 111.067 0.693181 111.953 0.693181C112.839 0.693181 113.595 0.994317 114.22 1.59659C114.857 2.1875 115.175 2.90341 115.175 3.74432C115.175 4.57386 114.857 5.28977 114.22 5.89204C113.595 6.48295 112.839 6.77841 111.953 6.77841ZM126.429 21.4545V37H121.332V10.8182H126.224V15.0795H126.548C127.151 13.6932 128.094 12.5795 129.378 11.7386C130.673 10.8977 132.304 10.4773 134.27 10.4773C136.054 10.4773 137.616 10.8523 138.957 11.6023C140.298 12.3409 141.338 13.4432 142.077 14.9091C142.815 16.375 143.185 18.1875 143.185 20.3466V37H138.088V20.9602C138.088 19.0625 137.594 17.5795 136.605 16.5114C135.616 15.4318 134.259 14.892 132.531 14.892C131.349 14.892 130.298 15.1477 129.378 15.6591C128.469 16.1705 127.747 16.9205 127.213 17.9091C126.69 18.8864 126.429 20.0682 126.429 21.4545ZM160.997 47.3636C158.918 47.3636 157.128 47.0909 155.628 46.5455C154.139 46 152.923 45.2784 151.98 44.3807C151.037 43.483 150.332 42.5 149.866 41.4318L154.247 39.625C154.554 40.125 154.963 40.6534 155.474 41.2102C155.997 41.7784 156.702 42.2614 157.588 42.6591C158.486 43.0568 159.639 43.2557 161.048 43.2557C162.98 43.2557 164.577 42.7841 165.838 41.8409C167.099 40.9091 167.73 39.4205 167.73 37.375V32.2273H167.406C167.099 32.7841 166.656 33.4034 166.077 34.0852C165.509 34.767 164.724 35.358 163.724 35.858C162.724 36.358 161.423 36.608 159.821 36.608C157.753 36.608 155.889 36.125 154.23 35.1591C152.582 34.1818 151.276 32.7443 150.31 30.8466C149.355 28.9375 148.878 26.5909 148.878 23.8068C148.878 21.0227 149.349 18.6364 150.293 16.6477C151.247 14.6591 152.554 13.1364 154.213 12.0795C155.872 11.0114 157.753 10.4773 159.855 10.4773C161.48 10.4773 162.793 10.75 163.793 11.2955C164.793 11.8295 165.571 12.4545 166.128 13.1705C166.696 13.8864 167.134 14.517 167.44 15.0625H167.815V10.8182H172.81V37.5795C172.81 39.8295 172.287 41.6761 171.241 43.1193C170.196 44.5625 168.781 45.6307 166.997 46.3239C165.224 47.017 163.224 47.3636 160.997 47.3636ZM160.946 32.3807C162.412 32.3807 163.651 32.0398 164.662 31.358C165.685 30.6648 166.457 29.6761 166.98 28.392C167.514 27.0966 167.781 25.5455 167.781 23.7386C167.781 21.9773 167.52 20.4261 166.997 19.0852C166.474 17.7443 165.707 16.6989 164.696 15.9489C163.685 15.1875 162.435 14.8068 160.946 14.8068C159.412 14.8068 158.134 15.2045 157.111 16C156.088 16.7841 155.315 17.8523 154.793 19.2045C154.281 20.5568 154.026 22.0682 154.026 23.7386C154.026 25.4545 154.287 26.9602 154.81 28.2557C155.332 29.5511 156.105 30.5625 157.128 31.2898C158.162 32.017 159.435 32.3807 160.946 32.3807ZM1.83523 95V60.0909H23.7216V64.625H7.10227V75.2614H22.5795V79.7784H7.10227V90.4659H23.9261V95H1.83523ZM37.9673 95.5795C36.3082 95.5795 34.8082 95.2727 33.4673 94.6591C32.1264 94.0341 31.0639 93.1307 30.2798 91.9489C29.5071 90.767 29.1207 89.3182 29.1207 87.6023C29.1207 86.125 29.4048 84.9091 29.973 83.9545C30.5412 83 31.3082 82.2443 32.2741 81.6875C33.2401 81.1307 34.3196 80.7102 35.5128 80.4261C36.706 80.142 37.9219 79.9261 39.1605 79.7784C40.7287 79.5966 42.0014 79.4489 42.9787 79.3352C43.956 79.2102 44.6662 79.0114 45.1094 78.7386C45.5526 78.4659 45.7741 78.0227 45.7741 77.4091V77.2898C45.7741 75.8011 45.3537 74.6477 44.5128 73.8295C43.6832 73.0114 42.4446 72.6023 40.7969 72.6023C39.081 72.6023 37.7287 72.983 36.7401 73.7443C35.7628 74.4943 35.0866 75.3295 34.7116 76.25L29.9219 75.1591C30.4901 73.5682 31.3196 72.2841 32.4105 71.3068C33.5128 70.3182 34.7798 69.6023 36.2116 69.1591C37.6435 68.7045 39.1491 68.4773 40.7287 68.4773C41.7741 68.4773 42.8821 68.6023 44.0526 68.8523C45.2344 69.0909 46.3366 69.5341 47.3594 70.1818C48.3935 70.8295 49.2401 71.7557 49.8991 72.9602C50.5582 74.1534 50.8878 75.7045 50.8878 77.6136V95H45.9105V91.4205H45.706C45.3764 92.0795 44.8821 92.7273 44.223 93.3636C43.5639 94 42.7173 94.5284 41.6832 94.9489C40.6491 95.3693 39.4105 95.5795 37.9673 95.5795ZM39.0753 91.4886C40.4844 91.4886 41.6889 91.2102 42.6889 90.6534C43.7003 90.0966 44.4673 89.3693 44.9901 88.4716C45.5241 87.5625 45.7912 86.5909 45.7912 85.5568V82.1818C45.6094 82.3636 45.2571 82.5341 44.7344 82.6932C44.223 82.8409 43.6378 82.9716 42.9787 83.0852C42.3196 83.1875 41.6776 83.2841 41.0526 83.375C40.4276 83.4545 39.9048 83.5227 39.4844 83.5795C38.4957 83.7045 37.5923 83.9148 36.7741 84.2102C35.9673 84.5057 35.3196 84.9318 34.831 85.4886C34.3537 86.0341 34.1151 86.7614 34.1151 87.6705C34.1151 88.9318 34.581 89.8864 35.5128 90.5341C36.4446 91.1705 37.6321 91.4886 39.0753 91.4886ZM57.6761 95V68.8182H62.6023V72.9773H62.875C63.3523 71.5682 64.1932 70.4602 65.3977 69.6534C66.6136 68.8352 67.9886 68.4261 69.5227 68.4261C69.8409 68.4261 70.2159 68.4375 70.6477 68.4602C71.0909 68.483 71.4375 68.5114 71.6875 68.5455V73.4205C71.483 73.3636 71.1193 73.3011 70.5966 73.233C70.0739 73.1534 69.5511 73.1136 69.0284 73.1136C67.8239 73.1136 66.75 73.3693 65.8068 73.8807C64.875 74.3807 64.1364 75.0795 63.5909 75.9773C63.0455 76.8636 62.7727 77.875 62.7727 79.0114V95H57.6761ZM89.8665 68.8182V72.9091H75.5653V68.8182H89.8665ZM79.4006 62.5455H84.4972V87.3125C84.4972 88.3011 84.6449 89.0455 84.9403 89.5455C85.2358 90.0341 85.6165 90.3693 86.0824 90.5511C86.5597 90.7216 87.0767 90.8068 87.6335 90.8068C88.0426 90.8068 88.4006 90.7784 88.7074 90.7216C89.0142 90.6648 89.2528 90.6193 89.4233 90.5852L90.3438 94.7955C90.0483 94.9091 89.6278 95.0227 89.0824 95.1364C88.5369 95.2614 87.8551 95.3295 87.0369 95.3409C85.696 95.3636 84.446 95.125 83.2869 94.625C82.1278 94.125 81.1903 93.3523 80.4744 92.3068C79.7585 91.2614 79.4006 89.9489 79.4006 88.3693V62.5455ZM101.163 79.4545V95H96.0668V60.0909H101.095V73.0795H101.419C102.033 71.6705 102.97 70.5511 104.232 69.7216C105.493 68.892 107.141 68.4773 109.175 68.4773C110.97 68.4773 112.538 68.8466 113.879 69.5852C115.232 70.3239 116.277 71.4261 117.016 72.892C117.766 74.3466 118.141 76.1648 118.141 78.3466V95H113.044V78.9602C113.044 77.0398 112.55 75.5511 111.561 74.4943C110.572 73.4261 109.197 72.892 107.436 72.892C106.232 72.892 105.152 73.1477 104.197 73.6591C103.254 74.1705 102.51 74.9205 101.964 75.9091C101.43 76.8864 101.163 78.0682 101.163 79.4545Z" fill="url(#paint0_linear_2049_6139)"/>
<defs>
<linearGradient id="paint0_linear_2049_6139" x1="133" y1="-79" x2="133" y2="107" gradientUnits="userSpaceOnUse">
<stop offset="0.304297" stop-color="#09B3E9"/>
<stop offset="0.936485" stop-color="#ADD748"/>
</linearGradient>
</defs>
</svg>
